<?xml version="1.0" encoding="utf-8" ?>
<svg baseProfile="full" height="200px" version="1.1" width="800px" xmlns="http://www.w3.org/2000/svg" xmlns:ev="http://www.w3.org/2001/xml-events" xmlns:xlink="http://www.w3.org/1999/xlink"><defs /><g id="phase1" visibility="hidden"><rect fill="white" height="100" rx="10" ry="10" stroke="black" stroke-width="2" width="150" x="20" y="50" /><rect fill="lightgray" height="8" width="130" x="30" y="60" /><rect fill="lightgray" height="8" width="128" x="31" y="70" /><animate attributeName="visibility" begin="0s" dur="0.5s" fill="freeze" keyTimes="0;1" values="hidden;visible" /></g><g id="phase2" visibility="hidden"><rect fill="white" height="100" rx="10" ry="10" stroke="black" stroke-width="2" width="150" x="200" y="50" /><rect fill="lightgray" height="8" width="130" x="210" y="60" /><rect fill="lightgray" height="8" width="128" x="211" y="70" /><rect fill="lightgray" height="8" width="126" x="212" y="80" /><rect fill="lightgray" height="8" width="124" x="213" y="90" /><animate attributeName="visibility" begin="1s" dur="0.5s" fill="freeze" keyTimes="0;1" values="hidden;visible" /></g><g id="phase3" visibility="hidden"><rect fill="white" height="100" rx="10" ry="10" stroke="black" stroke-width="2" width="150" x="380" y="50" /><rect fill="lightgray" height="8" width="130" x="390" y="60" /><rect fill="lightgray" height="8" width="128" x="391" y="70" /><rect fill="lightgray" height="8" width="126" x="392" y="80" /><rect fill="lightgray" height="8" width="124" x="393" y="90" /><rect fill="lightgray" height="8" width="122" x="394" y="100" /><rect fill="lightgray" height="8" width="120" x="395" y="110" /><animate attributeName="visibility" begin="2s" dur="0.5s" fill="freeze" keyTimes="0;1" values="hidden;visible" /></g><g id="phase4" visibility="hidden"><rect fill="white" height="100" rx="10" ry="10" stroke="black" stroke-width="2" width="150" x="560" y="50" /><rect fill="lightgray" height="8" width="130" x="570" y="60" /><rect fill="lightgray" height="8" width="128" x="571" y="70" /><rect fill="lightgray" height="8" width="126" x="572" y="80" /><rect fill="lightgray" height="8" width="124" x="573" y="90" /><rect fill="lightgray" height="8" width="122" x="574" y="100" /><rect fill="lightgray" height="8" width="120" x="575" y="110" /><rect fill="lightgray" height="8" width="118" x="576" y="120" /><rect fill="lightgray" height="8" width="116" x="577" y="130" /><animate attributeName="visibility" begin="3s" dur="0.5s" fill="freeze" keyTimes="0;1" values="hidden;visible" /></g></svg>