<svg xmlns="http://www.w3.org/2000/svg" viewBox="0.0 0.0 300.0 80.0">
    <rect x="0" y="0" width="300" height="100" fill="white" />
    <g transform="translate(20, 10)" id="phase1">
        <rect x="0" y="0" width="40" height="30" stroke="black" stroke-width="2" fill="none" rx="3" ry="3" />
        <rect x="10" y="35" width="20" height="5" fill="black" />
        <circle cx="10" cy="5" r="1.5" fill="black" />
        <circle cx="20" cy="5" r="1.5" fill="black" />
        <circle cx="30" cy="5" r="1.5" fill="black" />
    </g>
    <g transform="translate(90, 10)" id="phase2">
        <rect x="0" y="0" width="40" height="30" stroke="black" stroke-width="2" fill="none" rx="3" ry="3" />
        <rect x="5" y="8" width="30" height="5" fill="black" />
        <rect x="5" y="16" width="20" height="3" fill="black" />
        <rect x="5" y="22" width="15" height="3" fill="black" />
        <rect x="10" y="35" width="20" height="5" fill="black" />
        <circle cx="10" cy="5" r="1.5" fill="black" />
        <circle cx="20" cy="5" r="1.5" fill="black" />
        <circle cx="30" cy="5" r="1.5" fill="black" />
    </g>
    <g transform="translate(160, 10)" id="phase3">
        <rect x="0" y="0" width="40" height="30" stroke="black" stroke-width="2" fill="none" rx="3" ry="3" />
        <rect x="5" y="8" width="30" height="3" fill="black" />
        <rect x="5" y="13" width="25" height="3" fill="black" />
        <rect x="5" y="18" width="20" height="3" fill="black" />
        <rect x="25" y="8" width="10" height="13" stroke="black" stroke-width="1" fill="none" />
        <rect x="10" y="35" width="20" height="5" fill="black" />
        <circle cx="10" cy="5" r="1.5" fill="black" />
        <circle cx="20" cy="5" r="1.5" fill="black" />
        <circle cx="30" cy="5" r="1.5" fill="black" />
    </g>
    <g transform="translate(230, 10)" id="phase4">
        <rect x="0" y="0" width="40" height="30" stroke="black" stroke-width="2" fill="none" rx="3" ry="3" />
        <rect x="5" y="8" width="30" height="3" fill="black" />
        <rect x="5" y="13" width="25" height="3" fill="black" />
        <rect x="5" y="18" width="20" height="3" fill="black" />
        <rect x="25" y="8" width="10" height="8" stroke="black" stroke-width="1" fill="none" />
        <rect x="25" y="18" width="10" height="3" fill="black" />
        <rect x="10" y="35" width="20" height="5" fill="black" />
        <circle cx="10" cy="5" r="1.5" fill="black" />
        <circle cx="20" cy="5" r="1.5" fill="black" />
        <circle cx="30" cy="5" r="1.5" fill="black" />
    </g>
</svg>