<svg xmlns="http://www.w3.org/2000/svg" viewBox="0.0 0.0 300.0 80.0">
    <style>
@keyframes showPhase1 {
  0%, 24.9% { visibility: visible; }
  25%, 100% { visibility: hidden; }
}
@keyframes showPhase2 {
  0%, 24.9% { visibility: hidden; }
  25%, 49.9% { visibility: visible; }
  50%, 100% { visibility: hidden; }
}
@keyframes showPhase3 {
  0%, 49.9% { visibility: hidden; }
  50%, 74.9% { visibility: visible; }
  75%, 100% { visibility: hidden; }
}
@keyframes showPhase4 {
  0%, 74.9% { visibility: hidden; }
  75%, 100% { visibility: visible; }
}

#phase1, #phase2, #phase3, #phase4 {
  visibility: hidden;
  animation-duration: 8s;
  animation-iteration-count: infinite;
  animation-timing-function: linear;
}
#phase1 { animation-name: showPhase1; }
#phase2 { animation-name: showPhase2; }
#phase3 { animation-name: showPhase3; }
#phase4 { animation-name: showPhase4; }
</style><style>
@keyframes phaseCycle {
  0% { visibility: visible; }
  24% { visibility: visible; }
  25% { visibility: hidden; }
  100% { visibility: hidden; }
}
#phase1, #phase2, #phase3, #phase4 {
  visibility: hidden;
  animation-duration: 8s;
  animation-iteration-count: infinite;
}
#phase1 { animation-name: phase1Anim; }
#phase2 { animation-name: phase2Anim; animation-delay: 2s; }
#phase3 { animation-name: phase3Anim; animation-delay: 4s; }
#phase4 { animation-name: phase4Anim; animation-delay: 6s; }

@keyframes phase1Anim {
  0%, 24% { visibility: visible; }
  25%, 100% { visibility: hidden; }
}
@keyframes phase2Anim {
  0%, 24% { visibility: visible; }
  25%, 100% { visibility: hidden; }
}
@keyframes phase3Anim {
  0%, 24% { visibility: visible; }
  25%, 100% { visibility: hidden; }
}
@keyframes phase4Anim {
  0%, 24% { visibility: visible; }
  25%, 100% { visibility: hidden; }
}
</style><rect x="0" y="0" width="300" height="100" fill="white" />
    <g transform="translate(20, 10)" id="phase1">
        <rect x="0" y="0" width="40" height="30" stroke="black" stroke-width="2" fill="none" rx="3" ry="3" />
        <rect x="10" y="35" width="20" height="5" fill="black" />
        <circle cx="10" cy="5" r="1.5" fill="black" />
        <circle cx="20" cy="5" r="1.5" fill="black" />
        <circle cx="30" cy="5" r="1.5" fill="black" />
    </g>
    <g transform="translate(90, 10)" id="phase2">
        <rect x="0" y="0" width="40" height="30" stroke="black" stroke-width="2" fill="none" rx="3" ry="3" />
        <rect x="5" y="8" width="30" height="5" fill="black" />
        <rect x="5" y="16" width="20" height="3" fill="black" />
        <rect x="5" y="22" width="15" height="3" fill="black" />
        <rect x="10" y="35" width="20" height="5" fill="black" />
        <circle cx="10" cy="5" r="1.5" fill="black" />
        <circle cx="20" cy="5" r="1.5" fill="black" />
        <circle cx="30" cy="5" r="1.5" fill="black" />
    </g>
    <g transform="translate(160, 10)" id="phase3">
        <rect x="0" y="0" width="40" height="30" stroke="black" stroke-width="2" fill="none" rx="3" ry="3" />
        <rect x="5" y="8" width="30" height="3" fill="black" />
        <rect x="5" y="13" width="25" height="3" fill="black" />
        <rect x="5" y="18" width="20" height="3" fill="black" />
        <rect x="25" y="8" width="10" height="13" stroke="black" stroke-width="1" fill="none" />
        <rect x="10" y="35" width="20" height="5" fill="black" />
        <circle cx="10" cy="5" r="1.5" fill="black" />
        <circle cx="20" cy="5" r="1.5" fill="black" />
        <circle cx="30" cy="5" r="1.5" fill="black" />
    </g>
    <g transform="translate(230, 10)" id="phase4">
        <rect x="0" y="0" width="40" height="30" stroke="black" stroke-width="2" fill="none" rx="3" ry="3" />
        <rect x="5" y="8" width="30" height="3" fill="black" />
        <rect x="5" y="13" width="25" height="3" fill="black" />
        <rect x="5" y="18" width="20" height="3" fill="black" />
        <rect x="25" y="8" width="10" height="8" stroke="black" stroke-width="1" fill="none" />
        <rect x="25" y="18" width="10" height="3" fill="black" />
        <rect x="10" y="35" width="20" height="5" fill="black" />
        <circle cx="10" cy="5" r="1.5" fill="black" />
        <circle cx="20" cy="5" r="1.5" fill="black" />
        <circle cx="30" cy="5" r="1.5" fill="black" />
    </g>
</svg>