<svg xmlns="http://www.w3.org/2000/svg" viewBox="0.0 0.0 300.0 80.0">
    <rect x="0" y="0" width="300" height="100" fill="white" />
    <g transform="translate(20, 10)" opacity="0">
        <rect x="0" y="0" width="40" height="30" stroke="black" stroke-width="2" fill="none" rx="3" ry="3" />
        <rect x="10" y="35" width="20" height="5" fill="black" />
        <circle cx="10" cy="5" r="1.5" fill="black" />
        <circle cx="20" cy="5" r="1.5" fill="black" />
        <circle cx="30" cy="5" r="1.5" fill="black" />
    <animate attributeName="opacity" values="0;1;0" keyTimes="0;0.0000;0.2500" dur="8s" repeatCount="indefinite" fill="freeze" /></g>
    <g transform="translate(90, 10)" opacity="0">
        <rect x="0" y="0" width="40" height="30" stroke="black" stroke-width="2" fill="none" rx="3" ry="3" />
        <rect x="5" y="8" width="30" height="5" fill="black" />
        <rect x="5" y="16" width="20" height="3" fill="black" />
        <rect x="5" y="22" width="15" height="3" fill="black" />
        <rect x="10" y="35" width="20" height="5" fill="black" />
        <circle cx="10" cy="5" r="1.5" fill="black" />
        <circle cx="20" cy="5" r="1.5" fill="black" />
        <circle cx="30" cy="5" r="1.5" fill="black" />
    <animate attributeName="opacity" values="0;1;0" keyTimes="0;0.2500;0.5000" dur="8s" repeatCount="indefinite" fill="freeze" /></g>
    <g transform="translate(160, 10)" opacity="0">
        <rect x="0" y="0" width="40" height="30" stroke="black" stroke-width="2" fill="none" rx="3" ry="3" />
        <rect x="5" y="8" width="30" height="3" fill="black" />
        <rect x="5" y="13" width="25" height="3" fill="black" />
        <rect x="5" y="18" width="20" height="3" fill="black" />
        <rect x="25" y="8" width="10" height="13" stroke="black" stroke-width="1" fill="none" />
        <rect x="10" y="35" width="20" height="5" fill="black" />
        <circle cx="10" cy="5" r="1.5" fill="black" />
        <circle cx="20" cy="5" r="1.5" fill="black" />
        <circle cx="30" cy="5" r="1.5" fill="black" />
    <animate attributeName="opacity" values="0;1;0" keyTimes="0;0.5000;0.7500" dur="8s" repeatCount="indefinite" fill="freeze" /></g>
    <g transform="translate(230, 10)" opacity="0">
        <rect x="0" y="0" width="40" height="30" stroke="black" stroke-width="2" fill="none" rx="3" ry="3" />
        <rect x="5" y="8" width="30" height="3" fill="black" />
        <rect x="5" y="13" width="25" height="3" fill="black" />
        <rect x="5" y="18" width="20" height="3" fill="black" />
        <rect x="25" y="8" width="10" height="8" stroke="black" stroke-width="1" fill="none" />
        <rect x="25" y="18" width="10" height="3" fill="black" />
        <rect x="10" y="35" width="20" height="5" fill="black" />
        <circle cx="10" cy="5" r="1.5" fill="black" />
        <circle cx="20" cy="5" r="1.5" fill="black" />
        <circle cx="30" cy="5" r="1.5" fill="black" />
    <animate attributeName="opacity" values="0;1;0" keyTimes="0;0.7500;1.0000" dur="8s" repeatCount="indefinite" fill="freeze" /></g>
</svg>